<?xml version="1.0" encoding="UTF-8" standalone="no"?>
<svg
   xmlns:dc="http://purl.org/dc/elements/1.1/"
   xmlns:cc="http://creativecommons.org/ns#"
   xmlns:rdf="http://www.w3.org/1999/02/22-rdf-syntax-ns#"
   xmlns:svg="http://www.w3.org/2000/svg"
   xmlns="http://www.w3.org/2000/svg"
   xmlns:sodipodi="http://sodipodi.sourceforge.net/DTD/sodipodi-0.dtd"
   xmlns:inkscape="http://www.inkscape.org/namespaces/inkscape"
   version="1.1"
   id="Layer_1"
   x="0px"
   y="0px"
   viewBox="0 0 130 130"
   xml:space="preserve"
   sodipodi:docname="logo-foundation.svg"
   inkscape:version="1.0.1 (1.0.1+r73)"
   width="130"
   height="130"><metadata
   id="metadata77"><rdf:RDF><cc:Work
       rdf:about=""><dc:format>image/svg+xml</dc:format><dc:type
         rdf:resource="http://purl.org/dc/dcmitype/StillImage" /><dc:title></dc:title><dc:title></dc:title></cc:Work></rdf:RDF></metadata><defs
   id="defs75" /><sodipodi:namedview
   pagecolor="#ffffff"
   bordercolor="#666666"
   borderopacity="1"
   objecttolerance="10"
   gridtolerance="10"
   guidetolerance="10"
   inkscape:pageopacity="0"
   inkscape:pageshadow="2"
   inkscape:window-width="1920"
   inkscape:window-height="1017"
   id="namedview73"
   showgrid="false"
   inkscape:zoom="0.81572921"
   inkscape:cx="238.32156"
   inkscape:cy="176.37455"
   inkscape:window-x="0"
   inkscape:window-y="30"
   inkscape:window-maximized="1"
   inkscape:current-layer="Layer_1"
   fit-margin-top="0"
   fit-margin-left="0"
   fit-margin-right="0"
   fit-margin-bottom="0"
   lock-margins="true" />
<style
   type="text/css"
   id="style2">
	.st0{fill:#211D70;}
	.st1{fill:#C3161C;}
	.st2{fill:#CFAC77;}
	.st3{fill:#FFFFFF;}
</style>
<g
   id="g70"
   transform="matrix(0.22930925,0,0,0.22930925,-25.095604,-25.095604)">
	<circle
   class="st0"
   cx="392.89999"
   cy="392.89999"
   r="277.37"
   id="circle4" />
	<g
   id="g12">
		<path
   class="st1"
   d="m 249.88,282.64 c -0.93,1.21 -1.85,2.43 -2.75,3.66 l -0.09,0.12 v 212.93 l 0.09,0.13 c 0.9,1.23 1.82,2.45 2.76,3.66 12.65,16.39 27.87,30.38 45.23,41.59 l 0.73,0.47 V 240.58 l -0.73,0.47 c -17.37,11.21 -32.59,25.2 -45.24,41.59 z m 286.04,0 c -12.66,-16.39 -27.87,-30.39 -45.23,-41.59 -0.91,-0.59 -1.83,-1.16 -2.76,-1.74 l -0.72,-0.45 v 308.05 l 0.72,-0.45 c 0.92,-0.57 1.84,-1.15 2.76,-1.73 17.36,-11.2 32.58,-25.2 45.23,-41.59 l 0.1,-0.13 V 282.77 Z M 370.28,213.71 c -0.81,0.1 -1.61,0.21 -2.41,0.33 l -0.75,0.11 v 357.5 l 0.88,0.12 c 0.76,0.11 1.52,0.21 2.28,0.31 7.47,0.93 15.08,1.41 22.62,1.41 7.54,0 15.15,-0.47 22.62,-1.41 l 0.41,-0.05 V 213.76 l -0.41,-0.05 c -14.95,-1.86 -30.29,-1.86 -45.24,0 z"
   id="path6" />
		<path
   class="st0"
   d="m 212.31,392.9 c 0,30.62 7.82,60.88 22.6,87.52 l 0.89,1.59 V 303.78 l -0.89,1.59 c -14.79,26.64 -22.6,56.91 -22.6,87.53 z m 97.77,-160.52 c -0.92,0.48 -1.84,0.96 -2.75,1.45 l -0.25,0.13 v 317.85 l 0.25,0.13 c 0.91,0.49 1.83,0.98 2.75,1.45 14.28,7.39 29.5,12.82 45.24,16.15 l 0.57,0.12 V 216.11 l -0.57,0.12 c -15.74,3.33 -30.96,8.77 -45.24,16.15 z m 240.81,73 c -0.9,-1.62 -1.83,-3.23 -2.76,-4.79 l -0.88,-1.47 v 187.56 l 0.88,-1.47 c 0.93,-1.57 1.86,-3.18 2.76,-4.79 14.79,-26.63 22.6,-56.9 22.6,-87.52 0,-30.62 -7.81,-60.89 -22.6,-87.52 z m -120.4,-89.15 c -0.92,-0.19 -1.83,-0.38 -2.76,-0.56 l -0.56,-0.11 v 354.66 l 0.56,-0.11 c 0.92,-0.18 1.84,-0.37 2.76,-0.56 15.74,-3.33 30.96,-8.77 45.24,-16.15 l 0.26,-0.13 V 232.51 l -0.26,-0.13 C 461.44,225 446.22,219.56 430.49,216.23 Z"
   id="path8" />
		<path
   class="st2"
   d="m 295.37,241.45 v 302.89 c 0.91,0.59 1.83,1.16 2.75,1.73 3.08,1.91 6.23,3.74 9.43,5.47 V 234.25 c -3.2,1.73 -6.35,3.56 -9.43,5.47 -0.92,0.57 -1.84,1.14 -2.75,1.73 z m 62.79,-25.31 c -0.92,0.18 -1.83,0.36 -2.75,0.56 v 352.4 c 0.91,0.19 1.83,0.38 2.75,0.56 v 0 c 3.12,0.61 6.26,1.14 9.43,1.58 V 214.56 c -3.17,0.44 -6.31,0.97 -9.43,1.58 z m -120.09,84.69 c -0.94,1.58 -1.86,3.17 -2.75,4.78 v 174.58 c 0.89,1.61 1.81,3.2 2.75,4.78 2.92,4.9 6.07,9.66 9.43,14.25 v 0 -212.63 0 c -3.36,4.58 -6.51,9.34 -9.43,14.24 z M 475.5,232.8 v 320.19 c 0.92,-0.48 1.84,-0.96 2.75,-1.45 3.2,-1.73 6.35,-3.56 9.43,-5.47 V 239.72 c -3.08,-1.91 -6.23,-3.74 -9.43,-5.47 -0.91,-0.49 -1.82,-0.97 -2.75,-1.45 z m -60.04,-18.62 v 357.43 c 0.92,-0.11 1.83,-0.25 2.75,-0.37 3.17,-0.45 6.32,-0.97 9.43,-1.58 V 216.14 c -3.12,-0.61 -6.26,-1.14 -9.43,-1.58 -0.92,-0.13 -1.83,-0.26 -2.75,-0.38 z m 122.84,72.41 c -0.9,-1.23 -1.82,-2.45 -2.75,-3.66 v 219.93 c 0.93,-1.21 1.85,-2.42 2.75,-3.66 3.36,-4.59 6.51,-9.34 9.43,-14.25 V 300.83 c -2.92,-4.9 -6.07,-9.66 -9.43,-14.24 z"
   id="path10" />
	</g>
	<path
   class="st2"
   d="m 392.9,676.36 c -75.72,0 -146.9,-29.49 -200.44,-83.02 -53.54,-53.53 -83.02,-124.72 -83.02,-200.44 0,-75.72 29.49,-146.9 83.02,-200.44 53.53,-53.54 124.72,-83.02 200.44,-83.02 75.72,0 146.9,29.49 200.44,83.02 53.54,53.53 83.02,124.72 83.02,200.44 0,75.72 -29.49,146.9 -83.02,200.44 -53.53,53.54 -124.72,83.02 -200.44,83.02 z m 0,-554.74 c -149.59,0 -271.28,121.7 -271.28,271.28 0,149.58 121.7,271.28 271.28,271.28 149.58,0 271.28,-121.7 271.28,-271.28 0,-149.58 -121.69,-271.28 -271.28,-271.28 z"
   id="path14" />
	<g
   id="g20">
		<path
   class="st0"
   d="m 373.55,319.74 c -0.1,1.99 -0.35,2.75 -0.04,4.2 -2.03,-0.27 -4.57,-0.8 -6.67,-0.84 -0.68,-4.28 -0.74,-7.25 -1.79,-11.47 1.9,-0.22 3.74,-0.88 5.36,-1.89 -0.84,1.8 -1.5,3.39 -1.54,4.93 -0.04,2.66 1.16,4.44 4.68,5.07 m -51.68,49.85 -12.2,-1.53 c -0.16,-0.61 -0.4,-1.19 -0.7,-1.74 3.68,-0.26 7.36,-1.33 10.34,-3.55 0.65,2.35 1.51,4.63 2.56,6.82 m 198.43,38.54 c -10.83,-12.81 -28.94,-16.04 -43.86,-8.81 -8.9,-7.76 -20.63,-13.26 -35.05,-15.11 6.08,-13.7 7.93,-24.73 6.77,-35.68 -1.37,-12.97 -6.84,-24.21 -13.19,-35.38 l -28.83,13.46 c -2.08,-1.87 -3.11,-4.96 -3.36,-7.62 l 3.52,-1.49 c -0.97,-6.81 -2.38,-13.84 -6.32,-19.69 l 43.66,-6.24 12.26,-14.01 -16.79,-5.51 -68.42,12.28 -0.69,-3.23 c -0.47,-3.41 -2.93,-5.27 -5.84,-5.82 h 0.01 c -2.19,-0.42 -4.59,-0.06 -6.55,1 -3.3,1.78 -4.12,4.52 -3.57,7.78 l 0.87,5.18 -8.28,2.05 c -1.13,-0.71 -2.45,-1.15 -3.87,-1.23 -2.25,-0.13 -4.35,0.67 -5.92,2.07 -1.58,1.4 -2.62,3.4 -2.75,5.66 -0.13,2.25 0.67,4.35 2.07,5.92 1.4,1.57 3.4,2.62 5.66,2.75 2.38,0.14 5.46,-0.6 7.18,-2.18 0.44,3.73 -0.74,8.66 0.08,15.36 l -6.45,1.6 -7.31,-9.9 -10.84,2.92 -5.34,-7.55 -17.6,4.15 c -4.63,-2.37 -9.24,-3.89 -12.64,-3.43 l 2,8.2 c -7.77,4.21 -11.97,7.23 -16.37,18.93 l 3.21,0.41 8.49,1.09 c -0.85,2.95 -0.05,5.15 1.33,7.94 l -8.28,25.94 c -0.94,2.96 -1.31,5.54 2.01,7.27 5.99,3.12 12.43,4.62 18.6,0.86 0.47,0.11 0.95,0.19 1.44,0.22 2.23,0.13 4.31,-0.67 5.87,-2.06 0.88,-0.78 1.6,-1.76 2.07,-2.86 l 15.55,2.19 0.21,0.3 1.87,0.23 c -2.62,7.78 -3.7,15.42 -2.65,23.55 l -27.26,-2.73 -10.1,11.16 3.58,7.98 -2.75,3.45 22.85,43.98 21.79,11.59 5.07,2.69 -1.23,-5.6 -4.29,-20.11 c -3.35,-4.08 -9.57,-6.61 -14.77,-7.15 0.35,-5.44 0.13,-10.84 -0.85,-16.19 11.59,6.07 24.36,9.76 37.49,7.25 2.69,1.61 5.45,3.05 8.28,4.35 -4.79,2.22 -8.48,5.31 -12.17,9.03 5.4,3.42 14.4,6.04 23.32,4.98 1.57,14.19 4.57,33.26 18.63,44.47 l 1.87,-13.91 c 3.7,4.32 7.44,7.37 12.67,10.72 l 1.71,-12.41 c 3.49,4.66 7.76,7.78 12.36,11.17 l -0.15,-13.54 c 4.88,4.13 9.77,6.94 15.59,9.36 -3.84,-11.05 -8.33,-27.3 -10.66,-42.67 6.24,0.02 11.07,-0.18 15.54,-1.78 2.17,8.87 4.81,12.55 11.43,17.05 4.25,2.89 13.1,6.37 19.75,10.93 l -21.16,22.17 -13.7,21.22 17.06,-0.12 -6.52,11.15 h 27.95 c 1.34,-5.12 3.31,-8.29 2.29,-15.1 l 34.46,-34.79 c -4.32,-11.47 -10.42,-19.21 -19.17,-25.66 3.15,-12.41 -2.89,-30.8 -8.63,-39.79 5.39,-1.82 10.12,0.01 12.78,5.29 5.53,8.22 -0.1,18.86 5.18,29.36 3.68,7.31 9.66,13.81 23.29,15.92 -6.18,-10.19 -8.9,-20.84 -7.8,-33.27 l 9.3,3.17 c 0.74,-10.89 -0.23,-17.14 -6.99,-25.13"
   id="path16" />
		<path
   class="st3"
   d="m 476.5,476.61 5.61,3.87 -16.72,19.17 -5.57,1.46 c -0.43,1.98 -0.4,6.24 -4.13,10.87 l -9.78,0.18 8.51,-13.23 z M 344.22,300.42 c 1.12,-1 1.24,-2.96 0.24,-4.08 -0.49,-0.55 -1.19,-0.92 -1.98,-0.96 -0.81,-0.05 -1.55,0.23 -2.1,0.72 -0.55,0.49 -0.92,1.19 -0.96,1.98 -0.05,0.8 0.23,1.55 0.72,2.1 0.49,0.55 1.19,0.92 1.98,0.96 0.8,0.05 1.55,-0.23 2.1,-0.72 m 33.73,152.94 c 10.32,-2.85 12.42,-6.77 7.24,-17.41 -0.31,-1.2 0.32,-5.14 1.22,-8.13 2.23,-7.39 4.93,-13.36 3.2,-21.6 11.66,-2.96 21.11,-5.76 32.66,-15.81 -4.24,14.66 -5.24,29.56 -3.95,44.78 1.22,14.44 4.51,29.22 9.06,44.36 -5.27,-3.7 -8.47,-8.18 -12.12,-13.38 L 415,483.14 c -4.34,-4.53 -7.08,-10.26 -10.62,-15.37 l -1.91,18.66 c -6.09,-5.2 -9.08,-12.12 -12.06,-15.99 l -2.19,15.97 c -7.04,-10.02 -9.91,-22.33 -10.27,-33.05 m -11.5,-76.47 c 1.84,-2.95 7.11,-4.74 12.8,-4.99 l 12.67,-8.68 c 1.76,2.75 3.72,5.29 5.88,7.63 l -11.35,4.2 -4.65,-1.84 -0.77,4.28 c -4.07,2.05 -8.14,3.82 -14.58,-0.6 m 0.33,5.73 c -4.57,2.76 -9.58,5.16 -15.18,7.03 -6.55,2.18 -13.94,3.63 -22.48,4.09 -0.37,-5.34 0.84,-11.66 3.05,-17.5 l 31.69,3.97 c 0.73,0.97 1.69,1.8 2.92,2.41 m 35.26,-7.64 c 5.06,4.4 10.98,7.9 17.8,10.56 -9.23,7.72 -19.76,13.99 -31.85,15.77 l -5.64,-0.16 c 6.56,13.61 -0.49,20.7 -1.9,34.4 l -7.52,0.65 0.73,-38.25 c -0.09,-1.1 0.29,-2.18 1.4,-3.26 l 16.4,-15.93 z m -20.94,65.36 c 6.75,10.35 -17.18,10.99 -24.09,7.83 5.94,-6.36 18.72,-8.05 24.09,-7.83 M 326.42,410 l -27.49,-2.65 -1.43,-0.14 -0.9,1.13 -2.42,3.04 -1.03,-2.29 6,-6.63 26.03,2.62 c 0.36,1.61 0.77,3.26 1.24,4.92 m 7.57,6.06 c -1.9,-5.61 -3.68,-11.1 -4.44,-17.01 16.62,-0.93 29.94,-5.15 43.04,-13.82 2.69,0.27 5.24,-1.02 6.73,-2.07 l -7.94,7.71 c -2.43,2.36 -3.24,4.85 -3.02,7.5 l 0.11,37.85 c -4.52,1.23 -9.88,-2.4 -13.16,-6.13 -16.05,4.74 -32.58,-3.24 -45.77,-11.56 1.64,11.09 2.95,20.36 1.84,31.61 6,-0.09 10.61,0.46 15.57,4.46 l 2.86,13.08 -15.94,-9.01 -19.82,-38.56 5.83,-7.34 z m -25.94,-55.01 c 4.28,-10.77 8.1,-22.17 12.98,-32.61 12.03,0.67 19.37,7.53 29.96,16.38 5.92,4.95 23.07,18.31 31.04,20.62 l -3.67,2.46 c -5.7,0.04 -12.87,2.4 -16.75,6.67 l -33.28,-4.16 c -4.22,-6.12 -5.38,-12.33 -6.32,-17.9 -1.99,6.29 -9.4,9.24 -13.96,8.54 m -9.06,8.94 c 0.05,-0.77 0.4,-1.46 0.94,-1.94 0.54,-0.48 1.26,-0.75 2.05,-0.71 0.77,0.05 1.46,0.4 1.94,0.94 0.48,0.54 0.75,1.27 0.71,2.05 -0.04,0.77 -0.4,1.46 -0.94,1.93 -0.54,0.48 -1.27,0.75 -2.05,0.71 -0.77,-0.04 -1.46,-0.4 -1.94,-0.94 -0.49,-0.53 -0.76,-1.26 -0.71,-2.04 m -5.23,-1.11 c -0.04,0.27 -0.08,0.54 -0.09,0.82 -0.1,1.76 0.38,3.44 1.27,4.83 -3.73,1.17 -7.62,-0.09 -10.95,-1.85 l 2.17,-6.78 z m -1.38,-47.33 -4.12,9.43 -6.38,-0.82 c 0.98,-1.86 2.22,-3.49 3.76,-4.84 1.8,-1.61 4.04,-2.87 6.74,-3.77 m 13.01,12.28 -8.32,7.63 c -1.7,-2.93 -2.15,-4.9 0.65,-7.05 z m 9.98,-4.47 c -4.28,-8.89 -14.21,-14.5 -19.41,-15.84 l 1.75,4.89 4.88,2.4 -5.27,2.79 -3.81,8.62 c -2.1,4.8 -3.06,5.65 -0.29,11.13 l -5.44,17.49 8.52,3.34 c 0.03,-0.03 0.06,-0.06 0.09,-0.09 1.49,-1.33 3.45,-2.11 5.56,-2.07 z m 34.41,-5.03 c 2.01,10.07 11.28,18.74 24,21.35 -0.08,1.52 5.13,11.64 5.87,12.75 -4.6,-1.48 -8.08,-4 -12.13,-6.6 -15.82,-10.15 -27.31,-28.86 -49.67,-29.21 -2.29,-2.42 -6.07,-5.51 -10.31,-8.27 l 9.51,-2.44 5.62,7.58 10.89,-2.72 7.36,9.74 z m 3.86,-23.02 c -1.38,0.19 -2.82,-0.7 -3.29,-4.07 -0.06,-0.45 -0.12,-0.9 -0.19,-1.33 1.93,-0.45 3.84,-0.96 5.76,-1.43 0.61,2.24 0.97,6.39 -2.28,6.83 m 27.25,-13.41 c -3.46,1.94 -6.43,4.6 -8.68,7.86 l -4.3,0.9 0.97,5.4 c 0.69,3.35 -5.11,6 -5.98,1.16 l -3.59,-19.88 c -0.59,-3.53 4.88,-4.02 5.58,-0.77 l 1.67,7.88 z m 15.12,5.09 c -2.18,-2.2 -4.83,-4.29 -8.06,-6.35 l 50.88,-9.05 7.76,2.51 -5.83,6.65 z m 4.42,21.66 -8.46,3.59 c -1.13,-4.78 -3.11,-9.85 -5.86,-13.95 l -12.18,-0.38 c 0.84,-2.24 1.96,-4.36 3.46,-6.25 1.97,-2.48 4.64,-4.62 8.25,-6.21 8.68,5.68 13.04,13.07 14.79,23.2 m -21.25,0.08 c -0.52,-0.01 -4.97,0.15 -4.97,0.05 0.03,-1.5 1.59,-3.94 2.27,-5.46 l 6.7,0.21 c 1.96,3.33 3.21,7.18 3.92,10.95 l -2.55,1.3 c -5.76,2.99 -5.98,2.93 -5.79,-2.57 0.05,-1.4 0.18,-2.91 0.42,-4.48 m 21.93,14.22 -18.84,8.53 c 1.49,6.87 3.79,14.96 6.95,21.07 l -2.89,2.56 c -3.68,-6.97 -6.84,-11.43 -8.85,-18.94 -24.21,-5.33 -25.59,-19.28 -24.09,-35.32 0.88,-0.04 1.75,-0.27 2.6,-0.65 0.54,-0.25 1.07,-0.56 1.58,-0.95 2.67,7.16 3.63,14.54 5.17,21.97 13.4,-1.11 19.07,5.05 19.86,5.3 l 0.2,-4.28 15.07,-6.54 c -0.22,0.79 2.25,7.08 3.24,7.25 m 36.94,34.02 -6.94,3.49 3.5,6.96 -4.76,2.37 -3.49,-6.94 -6.96,3.5 -2.37,-4.76 6.94,-3.49 -3.5,-6.96 4.76,-2.37 3.49,6.94 6.96,-3.5 z m -10.79,-21.47 -6.94,3.49 3.5,6.96 -4.76,2.37 -3.49,-6.94 -6.96,3.5 -2.37,-4.76 6.94,-3.49 -3.5,-6.96 4.76,-2.37 3.49,6.94 6.96,-3.5 z m 15.62,7.58 c -1.09,-10.23 -4.95,-19.63 -10.13,-29.05 l -44.41,20.73 c 2.97,12.39 8.34,22.11 16.16,29.3 7.88,7.25 18.33,11.34 31.4,13.81 6.29,-13.5 8.09,-24.3 6.98,-34.79 m 7.32,42.28 c 0.69,6.6 2.38,13.48 5.09,19.77 0.95,2.21 1.98,4.39 3.09,6.55 -9.92,2.64 -30.28,3.66 -35.2,2.55 0.24,-10.83 1.88,-21.46 5.3,-31.91 7.62,-0.89 14.83,0.24 21.72,3.04 m 73.71,36.9 -8.75,-4.8 c -4.93,11.78 -4.08,21.68 2.48,32.74 -21.86,-11.52 -7.41,-26.78 -15.58,-40.52 -5.42,-10.77 -15.45,-10.82 -24.28,-4.41 6.65,5.27 14.13,32.44 10.17,42.9 9.22,8.52 14.72,13.52 18.7,22.94 -11.41,11.42 -22.81,22.84 -34.21,34.25 0.62,3.39 0.2,7.93 -1.26,11.32 l -15.04,-0.01 9.26,-16.47 24.66,-26.92 -19.47,-11.92 c -10.4,-6.37 -21.15,-7.5 -24.08,-21.59 l -1.55,-7.44 c -6.99,4.75 -15.49,3.24 -20.48,3.93 -0.33,-2.51 -0.6,-5.02 -0.81,-7.51 -0.26,-3.08 -0.42,-6.14 -0.48,-9.18 12.98,-0.01 22.1,-0.21 29.59,-1.57 4.43,-0.81 8.35,-2 12.75,-3.61 -1.78,-3.81 -3.67,-7.45 -5.35,-11.35 -2.19,-5.1 -4.13,-11.27 -4.93,-16.56 8.39,2.89 14.22,6.52 20.2,13.61 17.96,-14.8 47.93,1.61 48.46,22.17"
   id="path18" />
	</g>
	<g
   id="g38">
		<path
   class="st3"
   d="m 226.1,216.47 7.76,8.38 11.32,-10.47 5.49,5.93 -11.32,10.47 11.92,12.88 -7.73,7.15 -30.64,-33.11 21.31,-19.72 5.47,5.91 z"
   id="path22" />
		<path
   class="st3"
   d="m 282.66,209.46 c 1.2,-0.72 2.16,-1.57 2.86,-2.54 0.71,-0.97 1.16,-2.02 1.37,-3.16 0.21,-1.14 0.16,-2.34 -0.14,-3.62 -0.3,-1.28 -0.86,-2.6 -1.68,-3.96 l -13.78,-22.89 8.96,-5.4 13.78,22.89 c 1.43,2.37 2.35,4.78 2.78,7.22 0.43,2.44 0.35,4.81 -0.22,7.11 -0.57,2.29 -1.64,4.46 -3.21,6.49 -1.57,2.03 -3.64,3.82 -6.2,5.36 -2.58,1.56 -5.14,2.55 -7.67,2.99 -2.53,0.44 -4.94,0.37 -7.24,-0.2 -2.29,-0.57 -4.42,-1.61 -6.37,-3.14 -1.95,-1.53 -3.64,-3.47 -5.07,-5.84 l -13.78,-22.89 8.96,-5.4 13.77,22.86 c 0.82,1.36 1.72,2.47 2.71,3.34 0.99,0.86 2.04,1.47 3.14,1.83 1.11,0.36 2.25,0.45 3.44,0.28 1.19,-0.16 2.39,-0.61 3.59,-1.33 z"
   id="path24" />
		<path
   class="st3"
   d="m 336.19,147.72 13.56,43.02 -5.2,1.64 c -0.77,0.24 -1.45,0.32 -2.05,0.24 -0.6,-0.08 -1.25,-0.35 -1.96,-0.8 l -28.37,-19.26 c 0.32,0.74 0.61,1.47 0.87,2.18 0.26,0.71 0.48,1.38 0.68,2.01 l 7.27,23.06 -8.8,2.77 -13.56,-43.02 5.26,-1.66 c 0.43,-0.14 0.8,-0.23 1.11,-0.29 0.31,-0.05 0.6,-0.06 0.87,-0.03 0.27,0.03 0.55,0.11 0.82,0.24 0.27,0.13 0.61,0.32 0.99,0.56 l 28.61,19.38 c -0.36,-0.79 -0.68,-1.58 -0.97,-2.34 -0.28,-0.76 -0.54,-1.49 -0.75,-2.18 l -7.18,-22.76 z"
   id="path26" />
		<path
   class="st3"
   d="m 398.95,163.67 c 0.22,3.25 -0.14,6.29 -1.07,9.12 -0.94,2.83 -2.36,5.31 -4.26,7.46 -1.9,2.15 -4.25,3.88 -7.05,5.19 -2.8,1.32 -5.95,2.09 -9.45,2.33 l -17.48,1.18 -3.05,-45 17.48,-1.18 c 3.5,-0.24 6.73,0.11 9.67,1.05 2.95,0.94 5.51,2.34 7.69,4.2 2.17,1.86 3.91,4.13 5.22,6.8 1.31,2.66 2.08,5.62 2.3,8.85 z m -10.69,0.72 c -0.15,-2.22 -0.57,-4.21 -1.27,-5.96 -0.7,-1.75 -1.63,-3.21 -2.79,-4.39 -1.17,-1.17 -2.55,-2.04 -4.16,-2.6 -1.61,-0.56 -3.41,-0.78 -5.41,-0.64 l -6.98,0.47 1.96,28.94 6.98,-0.47 c 2,-0.14 3.76,-0.59 5.28,-1.37 1.52,-0.78 2.78,-1.82 3.77,-3.14 1,-1.32 1.72,-2.89 2.18,-4.72 0.44,-1.83 0.59,-3.87 0.44,-6.12 z"
   id="path28" />
		<path
   class="st3"
   d="m 446.59,192.94 -8.02,-1.22 c -0.9,-0.14 -1.59,-0.45 -2.08,-0.96 -0.49,-0.5 -0.82,-1.1 -1.01,-1.8 l -1.45,-8.17 -16.96,-2.57 -3.81,7.37 c -0.31,0.54 -0.79,0.99 -1.44,1.36 -0.65,0.37 -1.4,0.49 -2.26,0.36 l -8.08,-1.23 24.03,-41.97 10.59,1.61 z m -13.85,-19.54 -2.28,-12.84 c -0.19,-0.82 -0.38,-1.79 -0.56,-2.89 -0.19,-1.1 -0.36,-2.29 -0.52,-3.57 -0.5,1.2 -1,2.3 -1.5,3.31 -0.51,1.01 -0.97,1.88 -1.4,2.61 l -5.95,11.53 z"
   id="path30" />
		<path
   class="st3"
   d="m 483.89,194.88 c 0.23,0.09 0.45,0.22 0.64,0.39 0.2,0.18 0.36,0.41 0.49,0.7 l 2.32,5.56 c -2.54,1.57 -5.31,2.43 -8.29,2.59 -2.99,0.15 -6.22,-0.44 -9.71,-1.77 -3.2,-1.22 -5.86,-2.86 -7.98,-4.92 -2.12,-2.06 -3.7,-4.38 -4.73,-6.97 -1.03,-2.59 -1.52,-5.38 -1.46,-8.38 0.06,-2.99 0.68,-6.03 1.85,-9.12 1.2,-3.14 2.81,-5.84 4.84,-8.08 2.03,-2.24 4.33,-3.96 6.91,-5.17 2.58,-1.2 5.36,-1.84 8.35,-1.92 2.99,-0.07 6.03,0.48 9.14,1.66 1.58,0.6 3.02,1.31 4.31,2.12 1.29,0.81 2.45,1.7 3.48,2.65 1.03,0.95 1.92,1.97 2.68,3.06 0.76,1.08 1.38,2.18 1.86,3.29 l -4.99,3.17 c -0.32,0.19 -0.66,0.34 -1.03,0.45 -0.37,0.11 -0.82,0.07 -1.34,-0.13 -0.35,-0.13 -0.65,-0.34 -0.9,-0.61 -0.25,-0.27 -0.51,-0.58 -0.77,-0.94 -0.26,-0.35 -0.55,-0.74 -0.87,-1.16 -0.32,-0.42 -0.71,-0.85 -1.2,-1.29 -0.48,-0.44 -1.08,-0.88 -1.78,-1.33 -0.7,-0.45 -1.57,-0.86 -2.59,-1.25 -1.62,-0.62 -3.21,-0.88 -4.78,-0.8 -1.57,0.09 -3.06,0.52 -4.47,1.29 -1.41,0.78 -2.7,1.9 -3.87,3.36 -1.17,1.47 -2.16,3.27 -2.97,5.41 -0.82,2.16 -1.26,4.19 -1.31,6.09 -0.05,1.9 0.21,3.62 0.78,5.15 0.57,1.53 1.42,2.86 2.54,3.97 1.12,1.11 2.45,1.96 4,2.55 0.89,0.34 1.71,0.6 2.48,0.8 0.77,0.19 1.51,0.31 2.22,0.35 0.71,0.04 1.41,0 2.1,-0.13 0.69,-0.12 1.42,-0.34 2.2,-0.64 0.3,-0.11 0.62,-0.17 0.93,-0.19 0.33,0.03 0.63,0.08 0.92,0.19 z"
   id="path32" />
		<path
   class="st3"
   d="m 514.83,207.03 c -1.29,2.16 -2.74,3.97 -4.33,5.42 -1.6,1.45 -3.32,2.48 -5.17,3.1 -1.85,0.62 -3.8,0.78 -5.87,0.5 -2.07,-0.28 -4.21,-1.09 -6.45,-2.43 -1.01,-0.6 -1.97,-1.25 -2.89,-1.95 -0.92,-0.7 -1.84,-1.48 -2.75,-2.37 l 3.61,-4.95 c 0.33,-0.43 0.74,-0.69 1.23,-0.78 0.49,-0.09 1.02,0.03 1.61,0.38 0.3,0.18 0.64,0.45 1.03,0.81 0.38,0.36 0.89,0.73 1.51,1.1 0.87,0.52 1.7,0.85 2.49,1 0.79,0.15 1.56,0.07 2.32,-0.23 0.76,-0.3 1.51,-0.84 2.27,-1.62 0.75,-0.78 1.53,-1.83 2.32,-3.16 l 14.86,-24.88 8.98,5.37 z"
   id="path34" />
		<path
   class="st3"
   d="m 545.01,252.54 -6.12,-5.32 c -0.69,-0.6 -1.1,-1.24 -1.24,-1.92 -0.14,-0.68 -0.11,-1.37 0.11,-2.06 l 3.15,-7.68 -12.94,-11.25 -7.17,4.19 c -0.55,0.29 -1.2,0.41 -1.95,0.38 -0.75,-0.03 -1.45,-0.34 -2.1,-0.91 l -6.17,-5.36 42.77,-22.59 8.08,7.03 z m -1.23,-23.92 4.95,-12.06 c 0.28,-0.79 0.64,-1.71 1.07,-2.74 0.43,-1.03 0.92,-2.13 1.47,-3.29 -1.06,0.75 -2.07,1.41 -3.04,1.99 -0.97,0.58 -1.83,1.06 -2.58,1.45 l -11.19,6.56 z"
   id="path36" />
	</g>
	<g
   id="g42">
		<polygon
   class="st2"
   points="604.53,363.99 604.52,360.44 604.49,360.4 602.74,357.35 604.5,354.22 604.53,354.22 604.51,350.68 607.61,348.9 607.61,348.87 609.45,345.82 612.97,345.82 612.97,345.79 616.07,344.04 619.16,345.81 622.7,345.81 624.51,348.91 624.5,348.91 627.56,350.66 627.55,354.27 627.58,354.27 629.34,357.37 627.54,360.46 627.56,364 624.47,365.81 622.71,368.86 619.14,368.85 619.1,368.89 616.04,370.64 612.92,368.84 609.38,368.86 607.57,365.77 "
   id="polygon40" />
	</g>
	<g
   id="g46">
		<polygon
   class="st2"
   points="154.23,363.99 154.22,360.44 154.19,360.4 152.44,357.35 154.2,354.22 154.23,354.22 154.21,350.68 157.3,348.9 157.3,348.87 159.15,345.82 162.67,345.82 162.67,345.79 165.77,344.04 168.86,345.81 172.4,345.81 174.2,348.91 177.26,350.66 177.25,354.27 177.28,354.27 179.04,357.37 177.24,360.46 177.26,364 174.16,365.81 172.41,368.86 168.83,368.85 168.8,368.89 165.73,370.64 162.62,368.84 159.07,368.86 157.27,365.77 "
   id="polygon44" />
	</g>
	<path
   class="st2"
   d="m 392.9,579.11 c -102.68,0 -186.21,-83.53 -186.21,-186.21 0,-102.68 83.53,-186.21 186.21,-186.21 102.68,0 186.21,83.53 186.21,186.21 0,102.68 -83.53,186.21 -186.21,186.21 z m 0,-360.24 c -95.96,0 -174.03,78.07 -174.03,174.03 0,95.96 78.07,174.03 174.03,174.03 95.96,0 174.03,-78.07 174.03,-174.03 0,-95.96 -78.07,-174.03 -174.03,-174.03 z"
   id="path48" />
	<g
   id="g68">
		<path
   class="st3"
   d="m 214.09,494.78 c 1.57,2.76 2.59,5.32 3.06,7.68 0.47,2.36 0.49,4.5 0.07,6.44 -0.42,1.93 -1.24,3.65 -2.45,5.15 -1.22,1.5 -2.73,2.76 -4.54,3.79 -1.96,1.11 -3.93,1.81 -5.92,2.11 -1.99,0.3 -3.94,0.13 -5.83,-0.5 -1.9,-0.63 -3.74,-1.75 -5.52,-3.36 -1.78,-1.61 -3.44,-3.77 -4.98,-6.48 l -2.69,-4.74 -13.11,7.44 -5.17,-9.1 39.23,-22.26 z m -19.25,10.93 c 1.34,2.37 2.88,3.75 4.6,4.15 1.72,0.4 3.6,0.02 5.62,-1.13 0.9,-0.51 1.64,-1.11 2.22,-1.79 0.58,-0.69 0.98,-1.45 1.2,-2.3 0.22,-0.85 0.23,-1.77 0.05,-2.77 -0.19,-1 -0.61,-2.07 -1.26,-3.22 l -2.69,-4.74 -12.44,7.06 z"
   id="path50" />
		<path
   class="st3"
   d="m 238.87,563 c -2.42,2.18 -5.05,3.79 -7.89,4.84 -2.84,1.04 -5.71,1.5 -8.62,1.37 -2.91,-0.13 -5.76,-0.87 -8.56,-2.22 -2.8,-1.35 -5.38,-3.33 -7.72,-5.94 -2.35,-2.61 -4.05,-5.38 -5.11,-8.31 -1.06,-2.93 -1.5,-5.86 -1.34,-8.77 0.17,-2.91 0.92,-5.73 2.25,-8.44 1.33,-2.71 3.21,-5.16 5.64,-7.34 2.42,-2.18 5.05,-3.79 7.89,-4.84 2.84,-1.04 5.71,-1.49 8.62,-1.35 2.91,0.14 5.77,0.9 8.57,2.26 2.81,1.36 5.38,3.34 7.73,5.95 2.35,2.61 4.04,5.38 5.09,8.31 1.04,2.93 1.48,5.85 1.32,8.75 -0.17,2.9 -0.92,5.71 -2.25,8.42 -1.35,2.7 -3.22,5.14 -5.62,7.31 z m -7.17,-7.96 c 1.66,-1.49 2.95,-3.05 3.89,-4.67 0.94,-1.62 1.51,-3.25 1.7,-4.89 0.2,-1.63 0.01,-3.25 -0.55,-4.86 -0.56,-1.61 -1.51,-3.16 -2.85,-4.64 -1.35,-1.5 -2.8,-2.62 -4.35,-3.35 -1.55,-0.73 -3.14,-1.09 -4.79,-1.06 -1.65,0.02 -3.33,0.42 -5.04,1.18 -1.71,0.76 -3.4,1.89 -5.05,3.38 -1.67,1.51 -2.98,3.07 -3.92,4.69 -0.94,1.62 -1.51,3.25 -1.7,4.89 -0.2,1.63 -0.01,3.26 0.57,4.86 0.57,1.61 1.54,3.16 2.89,4.67 1.34,1.49 2.78,2.6 4.31,3.33 1.53,0.73 3.12,1.08 4.77,1.06 1.65,-0.02 3.32,-0.42 5.04,-1.18 1.71,-0.77 3.41,-1.9 5.08,-3.41 z"
   id="path52" />
		<path
   class="st3"
   d="m 265.86,581.67 13.15,9.18 -10.9,15.61 c -2.86,0.06 -5.59,-0.34 -8.16,-1.21 -2.58,-0.87 -5.03,-2.12 -7.37,-3.75 -3.05,-2.13 -5.48,-4.54 -7.31,-7.24 -1.83,-2.7 -3.04,-5.51 -3.65,-8.43 -0.6,-2.92 -0.58,-5.88 0.07,-8.86 0.65,-2.98 1.92,-5.83 3.81,-8.54 1.93,-2.76 4.15,-4.97 6.68,-6.65 2.53,-1.67 5.22,-2.75 8.09,-3.24 2.87,-0.49 5.84,-0.35 8.9,0.4 3.06,0.75 6.08,2.17 9.06,4.25 1.54,1.08 2.9,2.21 4.07,3.41 1.18,1.2 2.18,2.42 3.02,3.65 0.83,1.24 1.51,2.49 2.04,3.76 0.52,1.27 0.91,2.52 1.16,3.75 l -5.13,2.05 c -0.8,0.32 -1.56,0.33 -2.27,0.04 -0.71,-0.3 -1.27,-0.91 -1.67,-1.85 -0.39,-0.88 -0.79,-1.68 -1.18,-2.39 -0.39,-0.72 -0.84,-1.38 -1.34,-2.01 -0.5,-0.62 -1.06,-1.22 -1.7,-1.79 -0.64,-0.57 -1.38,-1.15 -2.25,-1.76 -1.61,-1.12 -3.25,-1.85 -4.93,-2.18 -1.68,-0.33 -3.34,-0.3 -4.96,0.1 -1.63,0.4 -3.19,1.15 -4.69,2.26 -1.5,1.1 -2.87,2.55 -4.11,4.32 -1.37,1.96 -2.32,3.9 -2.84,5.8 -0.52,1.9 -0.65,3.72 -0.4,5.46 0.25,1.74 0.88,3.37 1.88,4.88 1,1.51 2.33,2.85 4.01,4.02 1.03,0.72 2.04,1.27 3.02,1.65 0.98,0.38 1.98,0.68 3.02,0.9 l 3.92,-5.61 -3.66,-2.55 c -0.54,-0.38 -0.86,-0.82 -0.97,-1.32 -0.1,-0.5 0,-0.97 0.31,-1.41 z"
   id="path54" />
		<path
   class="st3"
   d="m 330.18,613.73 c -1.21,3.03 -2.85,5.64 -4.94,7.83 -2.08,2.19 -4.46,3.87 -7.13,5.04 -2.67,1.17 -5.55,1.77 -8.66,1.8 -3.11,0.03 -6.3,-0.61 -9.55,-1.91 -3.26,-1.3 -6.01,-3.03 -8.26,-5.19 -2.25,-2.16 -3.94,-4.59 -5.08,-7.27 -1.14,-2.69 -1.71,-5.54 -1.72,-8.57 -0.01,-3.02 0.59,-6.05 1.8,-9.08 1.21,-3.03 2.85,-5.64 4.94,-7.83 2.08,-2.19 4.46,-3.86 7.13,-5.02 2.67,-1.16 5.57,-1.75 8.69,-1.77 3.12,-0.02 6.31,0.62 9.57,1.91 3.26,1.3 6.01,3.03 8.24,5.2 2.24,2.17 3.92,4.59 5.05,7.26 1.13,2.67 1.7,5.52 1.71,8.55 0.01,3.02 -0.59,6.04 -1.79,9.05 z m -9.95,-3.97 c 0.82,-2.07 1.3,-4.04 1.42,-5.91 0.12,-1.87 -0.09,-3.58 -0.64,-5.14 -0.55,-1.55 -1.43,-2.92 -2.64,-4.12 -1.21,-1.19 -2.75,-2.16 -4.61,-2.9 -1.88,-0.75 -3.67,-1.11 -5.39,-1.08 -1.71,0.03 -3.3,0.42 -4.76,1.17 -1.47,0.75 -2.8,1.85 -3.99,3.29 -1.2,1.45 -2.21,3.2 -3.03,5.27 -0.83,2.09 -1.31,4.07 -1.44,5.94 -0.12,1.87 0.09,3.58 0.64,5.14 0.55,1.55 1.44,2.92 2.66,4.11 1.23,1.19 2.78,2.16 4.66,2.91 1.86,0.74 3.64,1.1 5.34,1.08 1.7,-0.02 3.28,-0.41 4.75,-1.16 1.46,-0.75 2.8,-1.85 3.99,-3.29 1.19,-1.45 2.21,-3.22 3.04,-5.31 z"
   id="path56" />
		<path
   class="st3"
   d="m 383.29,599.37 -6.31,44.66 -5.4,-0.76 c -0.8,-0.11 -1.45,-0.34 -1.95,-0.67 -0.51,-0.33 -0.98,-0.85 -1.42,-1.56 l -17.29,-29.61 c -0.03,0.81 -0.08,1.59 -0.16,2.34 -0.08,0.75 -0.16,1.45 -0.25,2.11 l -3.38,23.94 -9.14,-1.29 6.31,-44.66 5.46,0.77 c 0.45,0.06 0.82,0.14 1.13,0.22 0.3,0.08 0.57,0.2 0.79,0.35 0.23,0.15 0.44,0.34 0.64,0.57 0.2,0.24 0.41,0.55 0.65,0.94 l 17.45,29.82 c 0.02,-0.87 0.07,-1.72 0.14,-2.53 0.07,-0.81 0.16,-1.58 0.26,-2.29 l 3.34,-23.63 z m -3.59,-13.33 -11.14,7.34 c -0.28,0.19 -0.54,0.33 -0.78,0.42 -0.24,0.09 -0.49,0.15 -0.74,0.18 -0.25,0.03 -0.52,0.03 -0.8,0.01 -0.28,-0.02 -0.59,-0.05 -0.94,-0.1 l -6.93,-0.98 6.96,-7.46 c 0.29,-0.29 0.57,-0.52 0.83,-0.68 0.26,-0.16 0.54,-0.27 0.83,-0.32 0.29,-0.05 0.61,-0.06 0.97,-0.03 0.36,0.03 0.78,0.08 1.25,0.14 z"
   id="path58" />
		<path
   class="st3"
   d="m 459.9,626.53 1.79,8.16 -26.55,5.81 -9.64,-44.06 10.22,-2.24 7.85,35.9 z"
   id="path60" />
		<path
   class="st3"
   d="m 509.32,565.74 6.39,46.77 -8.59,3.99 -19.48,-21.77 c -0.33,-0.32 -0.68,-0.69 -1.03,-1.11 -0.35,-0.42 -0.72,-0.86 -1.09,-1.32 0.11,0.58 0.21,1.15 0.31,1.69 0.09,0.54 0.15,1.04 0.19,1.5 l 3.98,28.98 -8.59,3.99 -31.65,-35.03 7.97,-3.71 c 0.82,-0.38 1.6,-0.52 2.32,-0.4 0.73,0.12 1.32,0.45 1.77,0.99 l 15.54,18.72 c 0.48,0.59 0.99,1.25 1.53,1.97 0.54,0.72 1.09,1.47 1.66,2.25 -0.48,-1.92 -0.8,-3.67 -0.94,-5.26 l -3.3,-24.42 c -0.08,-0.6 0.07,-1.24 0.42,-1.92 0.36,-0.68 0.93,-1.2 1.71,-1.57 l 2.81,-1.31 c 0.82,-0.38 1.58,-0.5 2.26,-0.35 0.68,0.15 1.3,0.46 1.84,0.94 l 16.49,18.28 c 1.1,1.08 2.2,2.38 3.31,3.89 -0.24,-0.91 -0.45,-1.77 -0.64,-2.59 -0.18,-0.81 -0.34,-1.59 -0.48,-2.32 l -4.31,-23.95 c -0.1,-0.61 0.03,-1.25 0.4,-1.93 0.37,-0.67 0.95,-1.19 1.73,-1.56 z"
   id="path62" />
		<path
   class="st3"
   d="m 558.9,551.35 c 2.12,2.48 3.66,5.15 4.63,8.02 0.97,2.86 1.35,5.75 1.14,8.65 -0.21,2.9 -1.02,5.74 -2.45,8.5 -1.43,2.76 -3.47,5.29 -6.14,7.57 -2.67,2.28 -5.48,3.91 -8.44,4.89 -2.96,0.98 -5.9,1.35 -8.81,1.11 -2.91,-0.24 -5.7,-1.07 -8.38,-2.47 -2.68,-1.4 -5.08,-3.34 -7.2,-5.82 -2.12,-2.48 -3.66,-5.15 -4.63,-8.02 -0.97,-2.86 -1.34,-5.75 -1.12,-8.65 0.22,-2.9 1.05,-5.74 2.48,-8.51 1.43,-2.77 3.48,-5.3 6.15,-7.58 2.67,-2.28 5.48,-3.9 8.44,-4.87 2.96,-0.97 5.89,-1.33 8.78,-1.09 2.89,0.24 5.68,1.07 8.36,2.47 2.69,1.4 5.08,3.34 7.19,5.8 z m -29.83,-20.86 -1.87,13.2 c -0.04,0.33 -0.11,0.62 -0.2,0.86 -0.09,0.24 -0.21,0.47 -0.36,0.67 -0.15,0.21 -0.32,0.41 -0.52,0.61 -0.2,0.2 -0.43,0.41 -0.7,0.64 l -5.32,4.54 -0.98,-10.16 c -0.03,-0.41 -0.01,-0.77 0.04,-1.07 0.05,-0.3 0.16,-0.58 0.31,-0.83 0.15,-0.25 0.36,-0.5 0.62,-0.75 0.26,-0.25 0.57,-0.53 0.93,-0.84 z m 21.68,27.82 c -1.45,-1.69 -2.97,-3.03 -4.57,-4.01 -1.6,-0.98 -3.21,-1.59 -4.84,-1.83 -1.63,-0.24 -3.25,-0.1 -4.87,0.42 -1.62,0.52 -3.19,1.42 -4.72,2.72 -1.54,1.31 -2.69,2.73 -3.46,4.26 -0.77,1.53 -1.17,3.11 -1.19,4.76 -0.02,1.65 0.33,3.34 1.05,5.07 0.72,1.73 1.8,3.45 3.25,5.14 1.46,1.71 2.99,3.06 4.59,4.04 1.6,0.98 3.21,1.59 4.84,1.83 1.63,0.24 3.25,0.09 4.88,-0.44 1.62,-0.53 3.2,-1.45 4.74,-2.77 1.52,-1.3 2.67,-2.71 3.44,-4.22 0.77,-1.51 1.16,-3.09 1.18,-4.74 0.02,-1.65 -0.33,-3.33 -1.05,-5.07 -0.72,-1.73 -1.81,-3.45 -3.27,-5.16 z"
   id="path64" />
		<path
   class="st3"
   d="m 581.98,480.58 29.6,36.78 -5.3,7.85 -27.92,-8.6 c -0.45,-0.11 -0.94,-0.24 -1.45,-0.42 -0.52,-0.17 -1.06,-0.36 -1.61,-0.57 0.4,0.44 0.77,0.87 1.13,1.29 0.36,0.41 0.67,0.81 0.93,1.19 l 18.36,22.77 -5.3,7.85 -45.18,-13.68 4.92,-7.29 c 0.51,-0.75 1.1,-1.27 1.79,-1.54 0.68,-0.27 1.36,-0.3 2.03,-0.07 l 22.97,8.03 c 0.72,0.26 1.49,0.56 2.33,0.9 0.83,0.34 1.69,0.69 2.58,1.07 -1.4,-1.39 -2.58,-2.73 -3.52,-4.02 L 562.9,512.9 c -0.37,-0.48 -0.58,-1.1 -0.63,-1.86 -0.04,-0.76 0.18,-1.51 0.66,-2.22 l 1.73,-2.57 c 0.51,-0.75 1.09,-1.24 1.76,-1.47 0.66,-0.23 1.35,-0.27 2.06,-0.14 l 23.56,7.16 c 1.5,0.36 3.11,0.9 4.84,1.62 -0.68,-0.66 -1.31,-1.28 -1.88,-1.89 -0.58,-0.6 -1.11,-1.18 -1.61,-1.74 L 577.35,491.5 c -0.4,-0.47 -0.62,-1.09 -0.65,-1.86 -0.03,-0.77 0.2,-1.51 0.68,-2.23 z"
   id="path66" />
	</g>
</g>
</svg>
